REM DIRINDEX 1\2,1\3,1\4,1\5
REM DIRNAME folder01,folder02,folder03,folder04,folder05
TITLE ""
FILE "P1Q_t_0540-0549.mp3" MP3
  TRACK 01 AUDIO
    TITLE "3:cjc005_2523"
    INDEX 01 00:00:00
  TRACK 02 AUDIO
    TITLE "0:"
    INDEX 01 00:01:01
  TRACK 03 AUDIO
    TITLE "4:cjc005_2524"
    INDEX 01 00:01:24
  TRACK 04 AUDIO
    TITLE "0:"
    INDEX 01 00:02:40
  TRACK 05 AUDIO
    TITLE "5:cjc005_2525"
    INDEX 01 00:02:63
  TRACK 06 AUDIO
    TITLE "0:"
    INDEX 01 00:06:73
  TRACK 07 AUDIO
    TITLE "3:cjc005_2526"
    INDEX 01 00:07:54
  TRACK 08 AUDIO
    TITLE "0:"
    INDEX 01 00:08:64
  TRACK 09 AUDIO
    TITLE "4:cjc005_2527"
    INDEX 01 00:09:12
  TRACK 10 AUDIO
    TITLE "0:"
    INDEX 01 00:11:01
  TRACK 11 AUDIO
    TITLE "5:cjc005_2528"
    INDEX 01 00:11:27
  TRACK 12 AUDIO
    TITLE "0:"
    INDEX 01 00:15:34
  TRACK 13 AUDIO
    TITLE "3:cjc005_2529"
    INDEX 01 00:16:12
  TRACK 14 AUDIO
    TITLE "0:"
    INDEX 01 00:17:35
  TRACK 15 AUDIO
    TITLE "4:cjc005_2530"
    INDEX 01 00:17:57
  TRACK 16 AUDIO
    TITLE "0:"
    INDEX 01 00:19:26
  TRACK 17 AUDIO
    TITLE "5:cjc005_2531"
    INDEX 01 00:19:52
  TRACK 18 AUDIO
    TITLE "0:"
    INDEX 01 00:23:55
  TRACK 19 AUDIO
    TITLE "3:cjc005_2532"
    INDEX 01 00:24:31
  TRACK 20 AUDIO
    TITLE "0:"
    INDEX 01 00:25:50
  TRACK 21 AUDIO
    TITLE "4:cjc005_2533"
    INDEX 01 00:25:70
  TRACK 22 AUDIO
    TITLE "0:"
    INDEX 01 00:27:34
  TRACK 23 AUDIO
    TITLE "5:cjc005_2534"
    INDEX 01 00:27:59
  TRACK 24 AUDIO
    TITLE "0:"
    INDEX 01 00:31:73
  TRACK 25 AUDIO
    TITLE "3:cjc005_2535"
    INDEX 01 00:32:48
  TRACK 26 AUDIO
    TITLE "0:"
    INDEX 01 00:33:52
  TRACK 27 AUDIO
    TITLE "4:cjc005_2536"
    INDEX 01 00:33:73
  TRACK 28 AUDIO
    TITLE "0:"
    INDEX 01 00:35:00
  TRACK 29 AUDIO
    TITLE "5:cjc005_2537"
    INDEX 01 00:35:21
  TRACK 30 AUDIO
    TITLE "0:"
    INDEX 01 00:39:11
  TRACK 31 AUDIO
    TITLE "3:cjc005_2538"
    INDEX 01 00:39:64
  TRACK 32 AUDIO
    TITLE "0:"
    INDEX 01 00:41:00
  TRACK 33 AUDIO
    TITLE "4:cjc005_2539"
    INDEX 01 00:41:26
  TRACK 34 AUDIO
    TITLE "0:"
    INDEX 01 00:42:39
  TRACK 35 AUDIO
    TITLE "5:cjc005_2540"
    INDEX 01 00:42:59
  TRACK 36 AUDIO
    TITLE "0:"
    INDEX 01 00:46:45
  TRACK 37 AUDIO
    TITLE "3:cjc005_2541"
    INDEX 01 00:47:25
  TRACK 38 AUDIO
    TITLE "0:"
    INDEX 01 00:48:46
  TRACK 39 AUDIO
    TITLE "4:cjc005_2542"
    INDEX 01 00:48:73
  TRACK 40 AUDIO
    TITLE "0:"
    INDEX 01 00:50:33
  TRACK 41 AUDIO
    TITLE "5:cjc005_2543"
    INDEX 01 00:50:58
  TRACK 42 AUDIO
    TITLE "0:"
    INDEX 01 00:54:58
  TRACK 43 AUDIO
    TITLE "3:cjc005_2544"
    INDEX 01 00:55:34
  TRACK 44 AUDIO
    TITLE "0:"
    INDEX 01 00:56:45
  TRACK 45 AUDIO
    TITLE "4:cjc005_2545"
    INDEX 01 00:56:72
  TRACK 46 AUDIO
    TITLE "0:"
    INDEX 01 00:58:03
  TRACK 47 AUDIO
    TITLE "5:cjc005_2546"
    INDEX 01 00:58:26
  TRACK 48 AUDIO
    TITLE "0:"
    INDEX 01 01:03:35
  TRACK 49 AUDIO
    TITLE "3:cjc005_2547"
    INDEX 01 01:04:07
  TRACK 50 AUDIO
    TITLE "0:"
    INDEX 01 01:05:26
  TRACK 51 AUDIO
    TITLE "4:cjc005_2548"
    INDEX 01 01:05:50
  TRACK 52 AUDIO
    TITLE "0:"
    INDEX 01 01:07:04
  TRACK 53 AUDIO
    TITLE "5:cjc005_2549"
    INDEX 01 01:07:27
  TRACK 54 AUDIO
    TITLE "0:"
    INDEX 01 01:11:23
  TRACK 55 AUDIO
    TITLE "3:cjc005_2550"
    INDEX 01 01:11:70
  TRACK 56 AUDIO
    TITLE "0:"
    INDEX 01 01:13:00
  TRACK 57 AUDIO
    TITLE "4:cjc005_2551"
    INDEX 01 01:13:24
  TRACK 58 AUDIO
    TITLE "0:"
    INDEX 01 01:14:55
  TRACK 59 AUDIO
    TITLE "5:cjc005_2552"
    INDEX 01 01:15:05
  TRACK 60 AUDIO
    TITLE "0:"
    INDEX 01 01:18:49
